<mxfile host="app.diagrams.net" modified="2021-07-30T02:19:39.727Z" agent="5.0 (Macintosh; Intel Mac OS X 10_15_7) AppleWebKit/537.36 (KHTML, like Gecko) Chrome/91.0.4472.164 Safari/537.36" etag="JUOZh3AlW6CzQ3wgYDZz" version="14.4.2" type="github">
  <diagram id="UeTkHVFJjxVZ-L2pQdtA" name="Page-1">
    <mxGraphModel dx="2066" dy="1161" grid="1" gridSize="10" guides="1" tooltips="1" connect="1" arrows="1" fold="1" page="1" pageScale="1" pageWidth="827" pageHeight="1169" math="0" shadow="0">
      <root>
        <mxCell id="0" />
        <mxCell id="1" parent="0" />
        <mxCell id="_JeS9UTYy7zhie4tl7D9-3" style="edgeStyle=orthogonalEdgeStyle;rounded=0;orthogonalLoop=1;jettySize=auto;html=1;exitX=0.5;exitY=1;exitDx=0;exitDy=0;" edge="1" parent="1" source="_JeS9UTYy7zhie4tl7D9-1">
          <mxGeometry relative="1" as="geometry">
            <mxPoint x="455" y="190" as="targetPoint" />
          </mxGeometry>
        </mxCell>
        <mxCell id="_JeS9UTYy7zhie4tl7D9-1" value="&lt;font style=&quot;font-size: 16px&quot;&gt;is 01 ?&lt;/font&gt;" style="rhombus;whiteSpace=wrap;html=1;fillColor=#e1d5e7;strokeColor=#9673a6;" vertex="1" parent="1">
          <mxGeometry x="395" y="110" width="120" height="50" as="geometry" />
        </mxCell>
        <mxCell id="_JeS9UTYy7zhie4tl7D9-4" value="&lt;font style=&quot;font-size: 16px&quot;&gt;&lt;b&gt;Y&lt;/b&gt;&lt;/font&gt;" style="text;html=1;strokeColor=none;fillColor=none;align=center;verticalAlign=middle;whiteSpace=wrap;rounded=0;" vertex="1" parent="1">
          <mxGeometry x="425" y="160" width="30" height="30" as="geometry" />
        </mxCell>
        <mxCell id="_JeS9UTYy7zhie4tl7D9-6" style="edgeStyle=orthogonalEdgeStyle;rounded=0;orthogonalLoop=1;jettySize=auto;html=1;exitX=0.5;exitY=1;exitDx=0;exitDy=0;" edge="1" parent="1" source="_JeS9UTYy7zhie4tl7D9-5">
          <mxGeometry relative="1" as="geometry">
            <mxPoint x="455" y="270" as="targetPoint" />
          </mxGeometry>
        </mxCell>
        <mxCell id="_JeS9UTYy7zhie4tl7D9-8" style="edgeStyle=orthogonalEdgeStyle;rounded=0;orthogonalLoop=1;jettySize=auto;html=1;exitX=1;exitY=0.5;exitDx=0;exitDy=0;" edge="1" parent="1" source="_JeS9UTYy7zhie4tl7D9-5">
          <mxGeometry relative="1" as="geometry">
            <mxPoint x="595" y="215" as="targetPoint" />
          </mxGeometry>
        </mxCell>
        <mxCell id="_JeS9UTYy7zhie4tl7D9-5" value="&lt;font style=&quot;font-size: 16px&quot;&gt;is Biased ?&lt;/font&gt;" style="rhombus;whiteSpace=wrap;html=1;fillColor=#e1d5e7;strokeColor=#9673a6;" vertex="1" parent="1">
          <mxGeometry x="375" y="190" width="160" height="50" as="geometry" />
        </mxCell>
        <mxCell id="_JeS9UTYy7zhie4tl7D9-7" value="&lt;font style=&quot;font-size: 16px&quot;&gt;&lt;b&gt;Y&lt;/b&gt;&lt;/font&gt;" style="text;html=1;strokeColor=none;fillColor=none;align=center;verticalAlign=middle;whiteSpace=wrap;rounded=0;" vertex="1" parent="1">
          <mxGeometry x="425" y="240" width="30" height="30" as="geometry" />
        </mxCell>
        <mxCell id="_JeS9UTYy7zhie4tl7D9-10" value="&lt;font style=&quot;font-size: 16px&quot;&gt;&lt;b&gt;N&lt;/b&gt;&lt;/font&gt;" style="text;html=1;strokeColor=none;fillColor=none;align=center;verticalAlign=middle;whiteSpace=wrap;rounded=0;" vertex="1" parent="1">
          <mxGeometry x="545" y="185" width="30" height="30" as="geometry" />
        </mxCell>
        <mxCell id="_JeS9UTYy7zhie4tl7D9-13" style="edgeStyle=orthogonalEdgeStyle;rounded=0;orthogonalLoop=1;jettySize=auto;html=1;exitX=0.5;exitY=1;exitDx=0;exitDy=0;entryX=1;entryY=0.5;entryDx=0;entryDy=0;" edge="1" parent="1" source="_JeS9UTYy7zhie4tl7D9-11" target="_JeS9UTYy7zhie4tl7D9-19">
          <mxGeometry relative="1" as="geometry">
            <mxPoint x="685" y="310" as="targetPoint" />
          </mxGeometry>
        </mxCell>
        <mxCell id="_JeS9UTYy7zhie4tl7D9-14" style="edgeStyle=orthogonalEdgeStyle;rounded=0;orthogonalLoop=1;jettySize=auto;html=1;exitX=1;exitY=0.5;exitDx=0;exitDy=0;entryX=0;entryY=0.5;entryDx=0;entryDy=0;" edge="1" parent="1" source="_JeS9UTYy7zhie4tl7D9-11" target="_JeS9UTYy7zhie4tl7D9-26">
          <mxGeometry relative="1" as="geometry">
            <mxPoint x="835" y="215" as="targetPoint" />
          </mxGeometry>
        </mxCell>
        <mxCell id="_JeS9UTYy7zhie4tl7D9-11" value="&lt;font style=&quot;font-size: 16px&quot;&gt;CAS&lt;br&gt;替换Thread-ID&lt;/font&gt;" style="rhombus;whiteSpace=wrap;html=1;strokeWidth=2;strokeColor=#6c8ebf;fillColor=#dae8fc;" vertex="1" parent="1">
          <mxGeometry x="595" y="167.5" width="180" height="95" as="geometry" />
        </mxCell>
        <mxCell id="_JeS9UTYy7zhie4tl7D9-12" value="&lt;font style=&quot;font-size: 16px&quot;&gt;锁对象首次被线程获取，将Mark Word中的偏向模式设置为1，并进行一次CAS操作，将获取到该锁的线程ID写入对象的Mark Word中。&lt;/font&gt;" style="rounded=1;whiteSpace=wrap;html=1;strokeColor=#6c8ebf;strokeWidth=2;dashed=1;fillColor=#dae8fc;" vertex="1" parent="1">
          <mxGeometry x="525" y="80" width="349" height="80" as="geometry" />
        </mxCell>
        <mxCell id="_JeS9UTYy7zhie4tl7D9-17" style="edgeStyle=orthogonalEdgeStyle;rounded=0;orthogonalLoop=1;jettySize=auto;html=1;exitX=0.5;exitY=1;exitDx=0;exitDy=0;" edge="1" parent="1" source="_JeS9UTYy7zhie4tl7D9-16">
          <mxGeometry relative="1" as="geometry">
            <mxPoint x="455" y="380" as="targetPoint" />
          </mxGeometry>
        </mxCell>
        <mxCell id="_JeS9UTYy7zhie4tl7D9-51" style="edgeStyle=orthogonalEdgeStyle;rounded=0;orthogonalLoop=1;jettySize=auto;html=1;exitX=1;exitY=0.5;exitDx=0;exitDy=0;entryX=0;entryY=1;entryDx=0;entryDy=0;" edge="1" parent="1" source="_JeS9UTYy7zhie4tl7D9-16" target="_JeS9UTYy7zhie4tl7D9-11">
          <mxGeometry relative="1" as="geometry" />
        </mxCell>
        <mxCell id="_JeS9UTYy7zhie4tl7D9-16" value="&lt;font style=&quot;font-size: 16px&quot;&gt;is Current &lt;br&gt;Thread-ID ?&lt;/font&gt;" style="rhombus;whiteSpace=wrap;html=1;fillColor=#e1d5e7;strokeColor=#9673a6;" vertex="1" parent="1">
          <mxGeometry x="350" y="270" width="210" height="70" as="geometry" />
        </mxCell>
        <mxCell id="_JeS9UTYy7zhie4tl7D9-18" value="&lt;font style=&quot;font-size: 16px&quot;&gt;&lt;b&gt;Y&lt;/b&gt;&lt;/font&gt;" style="text;html=1;strokeColor=none;fillColor=none;align=center;verticalAlign=middle;whiteSpace=wrap;rounded=0;" vertex="1" parent="1">
          <mxGeometry x="425" y="340" width="30" height="30" as="geometry" />
        </mxCell>
        <mxCell id="_JeS9UTYy7zhie4tl7D9-23" style="edgeStyle=orthogonalEdgeStyle;rounded=0;orthogonalLoop=1;jettySize=auto;html=1;exitX=0.5;exitY=1;exitDx=0;exitDy=0;" edge="1" parent="1" source="_JeS9UTYy7zhie4tl7D9-19" target="_JeS9UTYy7zhie4tl7D9-22">
          <mxGeometry relative="1" as="geometry" />
        </mxCell>
        <mxCell id="_JeS9UTYy7zhie4tl7D9-19" value="&lt;font style=&quot;font-size: 18px&quot;&gt;持有偏向锁&lt;/font&gt;" style="rounded=1;whiteSpace=wrap;html=1;strokeWidth=2;strokeColor=#330000;" vertex="1" parent="1">
          <mxGeometry x="365" y="380" width="180" height="50" as="geometry" />
        </mxCell>
        <mxCell id="_JeS9UTYy7zhie4tl7D9-20" value="&lt;font style=&quot;font-size: 16px&quot;&gt;检查对象的Mark Word 中的 Thread-ID 是否为当前线程ID&lt;/font&gt;" style="rounded=1;whiteSpace=wrap;html=1;strokeColor=#9673a6;strokeWidth=2;dashed=1;dashPattern=1 1;fillColor=#e1d5e7;" vertex="1" parent="1">
          <mxGeometry x="10" y="310" width="190" height="85" as="geometry" />
        </mxCell>
        <mxCell id="_JeS9UTYy7zhie4tl7D9-21" value="&lt;span style=&quot;font-size: 16px&quot;&gt;是否已处于偏向状态&lt;/span&gt;" style="rounded=1;whiteSpace=wrap;html=1;strokeColor=#9673a6;strokeWidth=2;dashed=1;dashPattern=1 1;fillColor=#e1d5e7;" vertex="1" parent="1">
          <mxGeometry x="10" y="230" width="190" height="45" as="geometry" />
        </mxCell>
        <mxCell id="_JeS9UTYy7zhie4tl7D9-46" style="edgeStyle=orthogonalEdgeStyle;rounded=0;orthogonalLoop=1;jettySize=auto;html=1;exitX=0.5;exitY=1;exitDx=0;exitDy=0;entryX=0.5;entryY=0;entryDx=0;entryDy=0;" edge="1" parent="1" source="_JeS9UTYy7zhie4tl7D9-22" target="_JeS9UTYy7zhie4tl7D9-45">
          <mxGeometry relative="1" as="geometry" />
        </mxCell>
        <mxCell id="_JeS9UTYy7zhie4tl7D9-22" value="&lt;font style=&quot;font-size: 18px&quot;&gt;执行同步代码块&lt;/font&gt;" style="rounded=1;whiteSpace=wrap;html=1;strokeWidth=2;" vertex="1" parent="1">
          <mxGeometry x="365" y="470" width="180" height="50" as="geometry" />
        </mxCell>
        <mxCell id="_JeS9UTYy7zhie4tl7D9-24" value="&lt;font style=&quot;font-size: 16px&quot;&gt;&lt;b&gt;Y&lt;/b&gt;&lt;/font&gt;" style="text;html=1;strokeColor=none;fillColor=none;align=center;verticalAlign=middle;whiteSpace=wrap;rounded=0;" vertex="1" parent="1">
          <mxGeometry x="595" y="370" width="30" height="30" as="geometry" />
        </mxCell>
        <mxCell id="_JeS9UTYy7zhie4tl7D9-25" value="&lt;font style=&quot;font-size: 16px&quot;&gt;&lt;b&gt;N&lt;/b&gt;&lt;/font&gt;" style="text;html=1;strokeColor=none;fillColor=none;align=center;verticalAlign=middle;whiteSpace=wrap;rounded=0;" vertex="1" parent="1">
          <mxGeometry x="830" y="185" width="30" height="30" as="geometry" />
        </mxCell>
        <mxCell id="_JeS9UTYy7zhie4tl7D9-28" style="edgeStyle=orthogonalEdgeStyle;rounded=0;orthogonalLoop=1;jettySize=auto;html=1;exitX=0.5;exitY=1;exitDx=0;exitDy=0;" edge="1" parent="1" source="_JeS9UTYy7zhie4tl7D9-26" target="_JeS9UTYy7zhie4tl7D9-29">
          <mxGeometry relative="1" as="geometry">
            <mxPoint x="970" y="290" as="targetPoint" />
          </mxGeometry>
        </mxCell>
        <mxCell id="_JeS9UTYy7zhie4tl7D9-26" value="&lt;font style=&quot;font-size: 16px&quot;&gt;执行偏向锁撤销&lt;/font&gt;" style="rounded=1;whiteSpace=wrap;html=1;strokeColor=#b85450;strokeWidth=2;fillColor=#f8cecc;" vertex="1" parent="1">
          <mxGeometry x="910" y="185" width="120" height="60" as="geometry" />
        </mxCell>
        <mxCell id="_JeS9UTYy7zhie4tl7D9-27" value="&lt;span style=&quot;font-size: 16px&quot;&gt;CAS失败说明有竞争线程&lt;/span&gt;" style="rounded=1;whiteSpace=wrap;html=1;strokeWidth=2;dashed=1;" vertex="1" parent="1">
          <mxGeometry x="910" y="80" width="120" height="80" as="geometry" />
        </mxCell>
        <mxCell id="_JeS9UTYy7zhie4tl7D9-31" style="edgeStyle=orthogonalEdgeStyle;rounded=0;orthogonalLoop=1;jettySize=auto;html=1;exitX=0.5;exitY=1;exitDx=0;exitDy=0;entryX=0.5;entryY=0;entryDx=0;entryDy=0;" edge="1" parent="1" source="_JeS9UTYy7zhie4tl7D9-29" target="_JeS9UTYy7zhie4tl7D9-32">
          <mxGeometry relative="1" as="geometry">
            <mxPoint x="970" y="380" as="targetPoint" />
          </mxGeometry>
        </mxCell>
        <mxCell id="_JeS9UTYy7zhie4tl7D9-29" value="&lt;font style=&quot;font-size: 16px&quot;&gt;等待&lt;b&gt;原持锁线程&lt;/b&gt;到达&lt;b&gt;安全点&lt;/b&gt;。&lt;/font&gt;" style="rounded=1;whiteSpace=wrap;html=1;fillColor=#f8cecc;strokeColor=#b85450;" vertex="1" parent="1">
          <mxGeometry x="882.5" y="310" width="175" height="60" as="geometry" />
        </mxCell>
        <mxCell id="_JeS9UTYy7zhie4tl7D9-30" value="&lt;span style=&quot;font-size: 16px&quot;&gt;&lt;b&gt;安全点&lt;/b&gt;：&lt;/span&gt;&lt;span style=&quot;color: rgb(51 , 51 , 51) ; font-family: &amp;#34;pingfang sc&amp;#34; , &amp;#34;lantinghei sc&amp;#34; , &amp;#34;microsoft yahei&amp;#34; , &amp;#34;hiragino sans gb&amp;#34; , &amp;#34;microsoft sans serif&amp;#34; , &amp;#34;wenquanyi micro hei&amp;#34; , sans-serif ; font-size: 15px ; background-color: rgb(253 , 253 , 253)&quot;&gt;在这个时间点上没有字节码正在执行&lt;/span&gt;" style="rounded=1;whiteSpace=wrap;html=1;strokeWidth=2;dashed=1;" vertex="1" parent="1">
          <mxGeometry x="1075" y="310" width="190" height="60" as="geometry" />
        </mxCell>
        <mxCell id="_JeS9UTYy7zhie4tl7D9-34" style="edgeStyle=orthogonalEdgeStyle;rounded=0;orthogonalLoop=1;jettySize=auto;html=1;exitX=0.5;exitY=1;exitDx=0;exitDy=0;entryX=0.5;entryY=0;entryDx=0;entryDy=0;" edge="1" parent="1" source="_JeS9UTYy7zhie4tl7D9-32" target="_JeS9UTYy7zhie4tl7D9-33">
          <mxGeometry relative="1" as="geometry" />
        </mxCell>
        <mxCell id="_JeS9UTYy7zhie4tl7D9-32" value="&lt;span style=&quot;font-size: 16px&quot;&gt;暂停&lt;/span&gt;&lt;span style=&quot;font-size: 16px&quot;&gt;原持锁线程&lt;/span&gt;" style="rounded=1;whiteSpace=wrap;html=1;fillColor=#f8cecc;strokeColor=#b85450;" vertex="1" parent="1">
          <mxGeometry x="882.5" y="420" width="175" height="60" as="geometry" />
        </mxCell>
        <mxCell id="_JeS9UTYy7zhie4tl7D9-44" style="edgeStyle=orthogonalEdgeStyle;rounded=0;orthogonalLoop=1;jettySize=auto;html=1;exitX=0;exitY=0.5;exitDx=0;exitDy=0;entryX=1;entryY=0.5;entryDx=0;entryDy=0;" edge="1" parent="1" source="_JeS9UTYy7zhie4tl7D9-33" target="_JeS9UTYy7zhie4tl7D9-38">
          <mxGeometry relative="1" as="geometry" />
        </mxCell>
        <mxCell id="_JeS9UTYy7zhie4tl7D9-53" style="edgeStyle=orthogonalEdgeStyle;rounded=0;orthogonalLoop=1;jettySize=auto;html=1;exitX=1;exitY=0.5;exitDx=0;exitDy=0;" edge="1" parent="1" source="_JeS9UTYy7zhie4tl7D9-33">
          <mxGeometry relative="1" as="geometry">
            <mxPoint x="1290" y="780" as="targetPoint" />
          </mxGeometry>
        </mxCell>
        <mxCell id="_JeS9UTYy7zhie4tl7D9-33" value="&lt;span style=&quot;font-size: 16px&quot;&gt;检查持锁线程的状态&lt;/span&gt;" style="rhombus;whiteSpace=wrap;html=1;fillColor=#e1d5e7;strokeColor=#9673a6;" vertex="1" parent="1">
          <mxGeometry x="865" y="745" width="210" height="70" as="geometry" />
        </mxCell>
        <mxCell id="_JeS9UTYy7zhie4tl7D9-37" value="&lt;span style=&quot;font-size: 16px&quot;&gt;原持锁线程停止/已退出同步代码块。&lt;/span&gt;" style="rounded=1;whiteSpace=wrap;html=1;strokeWidth=2;dashed=1;" vertex="1" parent="1">
          <mxGeometry x="637" y="700" width="190" height="60" as="geometry" />
        </mxCell>
        <mxCell id="_JeS9UTYy7zhie4tl7D9-42" style="edgeStyle=orthogonalEdgeStyle;rounded=0;orthogonalLoop=1;jettySize=auto;html=1;exitX=0;exitY=0.5;exitDx=0;exitDy=0;entryX=0.5;entryY=1;entryDx=0;entryDy=0;" edge="1" parent="1" source="_JeS9UTYy7zhie4tl7D9-38" target="_JeS9UTYy7zhie4tl7D9-41">
          <mxGeometry relative="1" as="geometry" />
        </mxCell>
        <mxCell id="_JeS9UTYy7zhie4tl7D9-38" value="&lt;span style=&quot;font-size: 18px&quot;&gt;原持锁线程释放偏向锁：&lt;br&gt;偏向模式设置为0，并且恢复无锁状态。&lt;br&gt;&lt;/span&gt;" style="rounded=1;whiteSpace=wrap;html=1;strokeWidth=2;" vertex="1" parent="1">
          <mxGeometry x="340" y="730" width="230" height="100" as="geometry" />
        </mxCell>
        <mxCell id="_JeS9UTYy7zhie4tl7D9-39" value="&lt;span style=&quot;color: rgb(51 , 51 , 51) ; font-family: &amp;#34;pingfang sc&amp;#34; , &amp;#34;lantinghei sc&amp;#34; , &amp;#34;microsoft yahei&amp;#34; , &amp;#34;hiragino sans gb&amp;#34; , &amp;#34;microsoft sans serif&amp;#34; , &amp;#34;wenquanyi micro hei&amp;#34; , sans-serif ; font-size: 15px ; background-color: rgb(253 , 253 , 253)&quot;&gt;偏向锁只有遇到其他线程尝试竞争偏向锁时，持有偏向锁的线程才会释放锁，线程不会主动释放偏向锁。&lt;/span&gt;" style="rounded=1;whiteSpace=wrap;html=1;strokeWidth=2;dashed=1;" vertex="1" parent="1">
          <mxGeometry x="20" y="565" width="200" height="95" as="geometry" />
        </mxCell>
        <mxCell id="_JeS9UTYy7zhie4tl7D9-43" style="edgeStyle=orthogonalEdgeStyle;rounded=0;orthogonalLoop=1;jettySize=auto;html=1;exitX=0.5;exitY=0;exitDx=0;exitDy=0;entryX=0;entryY=0.5;entryDx=0;entryDy=0;" edge="1" parent="1" source="_JeS9UTYy7zhie4tl7D9-41" target="_JeS9UTYy7zhie4tl7D9-5">
          <mxGeometry relative="1" as="geometry" />
        </mxCell>
        <mxCell id="_JeS9UTYy7zhie4tl7D9-41" value="&lt;span style=&quot;font-size: 18px&quot;&gt;当前线程重新获取偏向锁&lt;br&gt;&lt;/span&gt;" style="rounded=1;whiteSpace=wrap;html=1;strokeWidth=2;" vertex="1" parent="1">
          <mxGeometry x="210" y="460" width="120" height="80" as="geometry" />
        </mxCell>
        <mxCell id="_JeS9UTYy7zhie4tl7D9-49" style="edgeStyle=orthogonalEdgeStyle;rounded=0;orthogonalLoop=1;jettySize=auto;html=1;exitX=1;exitY=0.5;exitDx=0;exitDy=0;entryX=1;entryY=0.5;entryDx=0;entryDy=0;" edge="1" parent="1" source="_JeS9UTYy7zhie4tl7D9-45" target="_JeS9UTYy7zhie4tl7D9-22">
          <mxGeometry relative="1" as="geometry">
            <Array as="points">
              <mxPoint x="600" y="595" />
              <mxPoint x="600" y="495" />
            </Array>
          </mxGeometry>
        </mxCell>
        <mxCell id="_JeS9UTYy7zhie4tl7D9-45" value="&lt;span style=&quot;font-size: 18px&quot;&gt;执行完毕&lt;/span&gt;" style="rounded=1;whiteSpace=wrap;html=1;strokeWidth=2;" vertex="1" parent="1">
          <mxGeometry x="367.5" y="570" width="175" height="50" as="geometry" />
        </mxCell>
        <mxCell id="_JeS9UTYy7zhie4tl7D9-50" value="&lt;span style=&quot;font-size: 16px&quot;&gt;无竞争的情况下可重复进入同步块&lt;/span&gt;" style="rounded=1;whiteSpace=wrap;html=1;strokeWidth=2;dashed=1;" vertex="1" parent="1">
          <mxGeometry x="620" y="510" width="190" height="60" as="geometry" />
        </mxCell>
        <mxCell id="_JeS9UTYy7zhie4tl7D9-52" value="&lt;font style=&quot;font-size: 16px&quot;&gt;&lt;b&gt;N&lt;/b&gt;&lt;/font&gt;" style="text;html=1;strokeColor=none;fillColor=none;align=center;verticalAlign=middle;whiteSpace=wrap;rounded=0;" vertex="1" parent="1">
          <mxGeometry x="590" y="270" width="30" height="30" as="geometry" />
        </mxCell>
        <mxCell id="_JeS9UTYy7zhie4tl7D9-54" value="&lt;b style=&quot;font-size: 16px&quot;&gt;原持锁线程&lt;/b&gt;&lt;span style=&quot;font-size: 16px&quot;&gt;：&lt;/span&gt;&lt;font color=&quot;#333333&quot; face=&quot;pingfang sc, lantinghei sc, microsoft yahei, hiragino sans gb, microsoft sans serif, wenquanyi micro hei, sans-serif&quot;&gt;&lt;span style=&quot;font-size: 15px ; background-color: rgb(253 , 253 , 253)&quot;&gt;与竞争线程进行区分&lt;/span&gt;&lt;/font&gt;" style="rounded=1;whiteSpace=wrap;html=1;strokeWidth=2;dashed=1;" vertex="1" parent="1">
          <mxGeometry x="1075" y="225" width="190" height="60" as="geometry" />
        </mxCell>
        <mxCell id="_JeS9UTYy7zhie4tl7D9-55" value="&lt;span style=&quot;font-size: 16px&quot;&gt;原持锁线程未退出同步代码块。&lt;/span&gt;" style="rounded=1;whiteSpace=wrap;html=1;strokeWidth=2;dashed=1;" vertex="1" parent="1">
          <mxGeometry x="1075" y="700" width="190" height="60" as="geometry" />
        </mxCell>
        <mxCell id="_JeS9UTYy7zhie4tl7D9-56" value="&lt;span style=&quot;font-size: 18px&quot;&gt;膨胀为轻量级锁，进入轻量级锁模式继续执行。&lt;br&gt;&lt;/span&gt;" style="rounded=1;whiteSpace=wrap;html=1;strokeWidth=2;" vertex="1" parent="1">
          <mxGeometry x="1290" y="740" width="160" height="90" as="geometry" />
        </mxCell>
      </root>
    </mxGraphModel>
  </diagram>
</mxfile>
